# xmcd
#
# Track frame offsets: 
#        150
#        19224
#        35218
#        51973
#        70151
#        87319
#        104481
#        121599
#        134736
#        138915
#        151845
#
# Disc length: 2314 seconds
#
# Revision: 10
# Processed by: cddbd v1.5.2PL0 Copyright (c) Steve Scherf et al.
# Submitted via: ExactAudioCopy v0.99pb5
#
DISCID=9909080b
DTITLE=Charlélie Couture - Poèmes Rock
DYEAR=1981
DGENRE=Chanson
TTITLE0=La ballade de Serge K
TTITLE1=Oublier
TTITLE2=Tu m'as pas dit d'où tu venais
TTITLE3=T'en va plus, t'en va pas
TTITLE4=Envie de l'eau
TTITLE5=Comme un avion sans aile
TTITLE6=L'histoire du loup dans la bergerie
TTITLE7=Longtemps, longtemps  (Tu m'aimes en passant)
TTITLE8=Le chant de la colline  (instrumental)
TTITLE9=Comme si on y croyait
TTITLE10=Le fauteuil en cuir  (Combien de temps)
EXTD=YEAR: 1981
EXTT0=
EXTT1=
EXTT2=
EXTT3=
EXTT4=
EXTT5=
EXTT6=
EXTT7=
EXTT8=
EXTT9=
EXTT10=
PLAYORDER=
